<svg width="30" height="29" viewBox="0 0 30 29" fill="none" xmlns="http://www.w3.org/2000/svg">
<path d="M14.8259 9.09277e-05C22.6047 -0.0277892 29.1977 6.35909 29.1473 14.5791C29.0993 22.3065 23.1656 28.008 17.0053 28.8142C12.2872 29.4322 8.162 28.1707 4.76479 24.7948C1.9788 22.0301 0.552616 18.6054 0.50912 14.6418C0.424419 6.52172 6.91666 0.00473762 14.8259 9.09277e-05ZM15.7645 18.5915C15.7645 17.7063 15.776 16.8188 15.7577 15.9336C15.7508 15.5851 15.8561 15.4503 16.2109 15.4689C16.7054 15.4945 17.2022 15.4712 17.6966 15.4759C18.0377 15.4805 18.2209 15.3481 18.2506 14.9764C18.2918 14.4583 18.3857 13.9448 18.4429 13.429C18.5116 12.8203 18.4063 12.6995 17.818 12.6925C17.2663 12.6856 16.7123 12.6786 16.1606 12.6949C15.8675 12.7041 15.7531 12.6112 15.7691 12.2999C15.792 11.8189 15.7851 11.3357 15.7714 10.8548C15.7508 10.1763 16.3094 9.76047 16.8679 9.71632C17.209 9.68844 17.5524 9.69774 17.8958 9.70006C18.2254 9.70238 18.3948 9.55136 18.3948 9.21448C18.3948 8.71264 18.3971 8.21079 18.3926 7.70895C18.3903 7.47429 18.2964 7.25125 18.0537 7.24661C16.8221 7.22105 15.5448 7.02124 14.4574 7.80886C14.0911 8.07372 13.6859 8.31999 13.4913 8.84274C13.0861 9.92775 13.1067 11.036 13.125 12.1489C13.1319 12.5555 13.0449 12.7134 12.5939 12.7065C11.0945 12.6856 11.1769 12.4765 11.1838 14.1191C11.1906 15.685 11.0762 15.4829 12.5367 15.4643C13.0106 15.4596 13.1525 15.5851 13.1434 16.073C13.109 17.769 13.1365 19.4651 13.1113 21.1588C13.1044 21.6258 13.2716 21.7768 13.7134 21.7489C14.1872 21.7187 14.668 21.7164 15.1419 21.7489C15.6111 21.7838 15.792 21.6304 15.7714 21.1332C15.7393 20.2875 15.7645 19.4372 15.7645 18.5915Z" fill="#FFD0E4"/>
</svg>
