<svg width="18" height="16" viewBox="0 0 18 16" fill="none" xmlns="http://www.w3.org/2000/svg">
<path d="M12.647 0.408813C11.9399 0.415654 11.2442 0.588015 10.6157 0.912086C9.9872 1.23616 9.44333 1.70293 9.02767 2.27501C8.61201 1.70293 8.06814 1.23616 7.43963 0.912086C6.81112 0.588015 6.11545 0.415654 5.40834 0.408813C4.12728 0.459971 2.9186 1.01629 2.04658 1.95614C1.17456 2.89598 0.710153 4.14288 0.754913 5.42417C0.754913 8.56231 3.97715 11.9217 6.68372 14.1878C7.34095 14.7404 8.17209 15.0434 9.03078 15.0434C9.88946 15.0434 10.7206 14.7404 11.3778 14.1878C14.0816 11.9217 17.3066 8.56231 17.3066 5.42417C17.3514 4.14184 16.8861 2.89404 16.0128 1.95402C15.1394 1.014 13.9292 0.458373 12.647 0.408813V0.408813ZM10.0459 12.6029C9.76079 12.8429 9.40005 12.9746 9.02733 12.9746C8.65461 12.9746 8.29386 12.8429 8.00875 12.6029C4.71343 9.83976 2.8231 7.2235 2.8231 5.42417C2.77915 4.69149 3.02598 3.97105 3.51001 3.41926C3.99403 2.86747 4.67618 2.52888 5.40834 2.477C6.1405 2.52888 6.82265 2.86747 7.30668 3.41926C7.7907 3.97105 8.03753 4.69149 7.99358 5.42417C7.99358 5.69843 8.10253 5.96146 8.29646 6.15539C8.49039 6.34932 8.75341 6.45827 9.02767 6.45827C9.30193 6.45827 9.56496 6.34932 9.75889 6.15539C9.95282 5.96146 10.0618 5.69843 10.0618 5.42417C10.0178 4.69149 10.2646 3.97105 10.7487 3.41926C11.2327 2.86747 11.9148 2.52888 12.647 2.477C13.3792 2.52888 14.0613 2.86747 14.5453 3.41926C15.0294 3.97105 15.2762 4.69149 15.2322 5.42417C15.2322 7.2235 13.3419 9.83976 10.0459 12.6029Z" fill="#3F3F48"/>
</svg>
