<svg width="18" height="18" viewBox="0 0 18 18" fill="none" xmlns="http://www.w3.org/2000/svg">
<path d="M16.3885 6.64852L11.5761 1.83615C10.1164 0.380136 7.75356 0.380136 6.29378 1.83615L1.48141 6.64852C1.0342 7.09335 0.783537 7.69859 0.785287 8.32939V15.3775C0.786784 16.2975 1.5326 17.0426 2.45259 17.0434H15.4173C16.3373 17.0427 17.0831 16.2975 17.0846 15.3775V8.32939C17.0864 7.69859 16.8357 7.09335 16.3885 6.64852ZM15.0472 15.006H11.6515V12.845C11.6515 11.4129 10.4906 10.252 9.05855 10.252H8.81136C7.37931 10.252 6.2184 11.4129 6.2184 12.845V15.006H2.8227V8.32939C2.82292 8.23933 2.85851 8.15299 2.92186 8.08897L7.73423 3.27661C8.39719 2.61346 9.47221 2.61333 10.1354 3.27629C10.1355 3.27638 10.1356 3.27651 10.1357 3.27661L14.948 8.08897C15.0114 8.15299 15.047 8.23933 15.0472 8.32939V15.006H15.0472Z" fill="#3F3F48"/>
</svg>
