<svg width="30" height="29" viewBox="0 0 30 29" fill="none" xmlns="http://www.w3.org/2000/svg">
<path d="M15.2268 0.00237888C23.3169 0.102283 29.468 6.74008 29.3902 14.6441C29.3101 22.6271 22.9529 29.1697 14.7094 28.9838C10.9574 28.8978 7.66544 27.4922 4.99621 24.7994C2.12781 21.9069 0.692467 18.3684 0.758855 14.2515C0.887051 6.31723 7.29917 -0.0580281 15.2268 0.00237888ZM22.2409 14.5186C22.2409 13.4964 22.2547 12.4741 22.2387 11.4518C22.1974 9.04252 20.318 7.33951 18.2119 7.24657C16.1196 7.15364 14.0203 7.21869 11.9257 7.23263C10.7834 7.2396 9.75093 7.77397 9.03211 8.53138C8.32245 9.27718 7.88521 10.3366 7.8875 11.4751C7.89208 13.501 7.87377 15.527 7.89895 17.5506C7.90582 18.0432 7.96763 18.5613 8.13474 19.0213C8.67957 20.5198 10.4057 21.7001 12.0058 21.7419C12.4797 21.7535 12.9696 21.5932 13.4045 21.6536C14.5446 21.8116 15.6777 21.6792 16.8109 21.7466C17.587 21.793 18.3722 21.7257 19.1093 21.5607C20.8262 21.1797 22.2249 19.4558 22.2409 17.5274C22.2501 16.526 22.2409 15.5223 22.2409 14.5186Z" fill="#FFD0E4"/>
<path d="M9.33884 14.765C9.33884 13.7636 9.33197 12.7599 9.34113 11.7586C9.35715 9.93474 10.5041 8.72892 12.2897 8.70801C14.1714 8.6871 16.0554 8.75448 17.9372 8.70569C19.4229 8.66619 20.7713 10.0184 20.785 11.5704C20.801 13.5917 20.8102 15.6153 20.769 17.6366C20.7415 19.0725 19.4527 20.3317 17.8273 20.3108C15.9227 20.2876 14.018 20.3015 12.1111 20.3038C11.5182 20.3038 11.0443 20.1435 10.5704 19.7021C10.124 19.2862 9.7303 18.9029 9.47162 18.336C9.32739 18.02 9.37318 17.7226 9.36173 17.4252C9.32739 16.54 9.35029 15.6525 9.35029 14.7673C9.34571 14.765 9.34341 14.765 9.33884 14.765ZM11.3717 14.4955C11.319 16.5865 13.1435 18.3406 15.2496 18.3685C17.0238 18.3917 18.8346 16.3611 18.8002 14.4327C18.7613 12.3905 17.0627 10.7316 15.0116 10.7363C13.0222 10.7386 11.3579 12.4579 11.3717 14.4955ZM17.896 10.7502C17.9029 11.2683 18.2874 11.6587 18.7979 11.6633C19.3107 11.668 19.7365 11.2265 19.7274 10.7014C19.7205 10.2298 19.2558 9.79534 18.7819 9.81392C18.2783 9.83251 17.8891 10.2461 17.896 10.7502Z" fill="#FFD0E4"/>
<path d="M15.0666 16.7676C13.7732 16.7443 12.8231 15.7825 12.83 14.5023C12.8391 13.178 13.8189 12.1813 15.1146 12.2347C16.6805 12.2974 17.2345 13.3127 17.31 14.5743C17.381 15.7848 16.2798 16.7885 15.0666 16.7676Z" fill="#FFD0E4"/>
</svg>
