<svg width="30" height="29" viewBox="0 0 30 29" fill="none" xmlns="http://www.w3.org/2000/svg">
<path d="M15.1901 0.00234582C23.2207 0.14407 29.4978 6.81904 29.2666 14.9298C29.0422 22.8199 22.6255 29.3834 14.1806 28.9814C6.74747 28.626 0.607765 22.4947 0.626078 14.4628C0.644392 6.22891 7.29459 -0.132408 15.1901 0.00234582ZM21.0712 10.1043C21.2314 9.83707 21.3871 9.59544 21.5244 9.34452C21.6229 9.16562 21.8266 8.95884 21.6572 8.77298C21.4649 8.56155 21.2818 8.82874 21.1124 8.91005C20.405 9.25391 19.7594 9.47463 19.02 8.86359C18.4363 8.38033 17.5984 8.30134 16.9048 8.44771C15.4603 8.75439 14.5148 10.0624 14.5057 11.5633C14.5034 12.0024 14.3683 12.0721 13.9746 12.0187C11.9829 11.7445 10.3622 10.7827 9.02754 9.3027C8.70247 8.94258 8.55825 8.95884 8.3774 9.39796C7.87606 10.6177 8.1233 11.719 8.86729 12.7436C8.77573 12.811 8.70705 12.7691 8.64066 12.732C8.12558 12.4532 8.05462 12.7273 8.11643 13.1641C8.13245 13.2779 8.1439 13.3941 8.18053 13.501C8.45066 14.3142 8.72078 15.1297 9.64334 15.5339C9.08477 15.5153 9.06646 15.7616 9.25417 16.1171C9.54033 16.6538 9.78527 17.1974 10.4011 17.4809C10.7445 17.6389 11.1107 17.7643 11.4976 17.9827C10.4766 18.5914 9.43273 18.8609 8.32475 18.9144C8.13016 18.9237 7.86461 18.8377 7.81425 19.1374C7.77075 19.3953 8.02715 19.4255 8.18281 19.5092C9.77383 20.3688 11.4587 20.6592 13.2557 20.4571C17.1566 20.018 19.9746 17.0185 20.5721 13.1618C20.7003 12.3323 20.4989 11.4611 21.4489 11.008C21.5015 10.9825 21.5153 10.8756 21.5519 10.8105C21.7167 10.5248 22.1997 10.2739 22.0097 9.97182C21.8289 9.6907 21.4535 10.153 21.0712 10.1043Z" fill="#FFD0E4"/>
</svg>
