<svg width="30" height="29" viewBox="0 0 30 29" fill="none" xmlns="http://www.w3.org/2000/svg">
<path d="M15.2039 -4.60204e-05C23.1361 0.00227733 29.0331 6.35895 29.4772 13.4266C29.7359 17.5482 28.5249 21.1912 25.7801 24.2627C23.4726 26.8439 20.5813 28.3982 17.1841 28.8536C12.6835 29.46 8.70251 28.1636 5.38313 25.041C2.40027 22.2367 0.909982 18.6866 0.873354 14.565C0.800099 6.5425 7.31065 -0.0418662 15.2039 -4.60204e-05ZM14.4416 19.7879C16.4584 19.7995 17.8274 19.7461 19.1917 19.6253C21.2429 19.4417 21.8335 18.9654 22.1586 17.0882C22.5065 15.0785 22.4058 13.0595 22.0418 11.0568C22.0029 10.8477 22.0006 10.6014 21.8037 10.4271C21.1879 9.89044 20.5332 9.46991 19.6839 9.42577C18.9811 9.39092 18.2852 9.27707 17.5824 9.24455C15.1833 9.13535 12.7888 9.16091 10.4011 9.45829C9.23589 9.60467 8.44153 10.3714 8.25152 11.5168C7.92416 13.4893 7.91729 15.4641 8.24923 17.4367C8.45755 18.668 9.22903 19.3813 10.4767 19.5346C12.0082 19.7228 13.5465 19.7856 14.4416 19.7879Z" fill="#FFD0E4"/>
<path d="M17.9419 14.5046C16.4447 15.42 15.0048 16.3005 13.4778 17.2345C13.4778 16.3679 13.4778 15.571 13.4778 14.7741C13.4778 14.0027 13.4755 13.2337 13.4824 12.4623C13.4847 12.1022 13.5992 11.8954 13.9952 12.1185C14.0753 12.165 14.1783 12.1719 14.2562 12.2207C15.4626 12.9642 16.6645 13.7123 17.9419 14.5046Z" fill="#FFD0E4"/>
</svg>
